<svg xmlns="http://www.w3.org/2000/svg" viewBox="0 0 420 520" role="img" aria-labelledby="title desc">
  <title id="title">Project planning preview</title>
  <desc id="desc">A stylized illustration of a consultant reviewing a building through a window.</desc>
  <defs>
    <linearGradient id="sky" x1="0" y1="0" x2="1" y2="1">
      <stop offset="0%" stop-color="#edf3f6"/>
      <stop offset="100%" stop-color="#cad6dc"/>
    </linearGradient>
    <linearGradient id="glass" x1="0" y1="0" x2="0" y2="1">
      <stop offset="0%" stop-color="#f7fbfc" stop-opacity=".78"/>
      <stop offset="100%" stop-color="#cfd9de" stop-opacity=".34"/>
    </linearGradient>
    <linearGradient id="coat" x1="0" y1="0" x2="1" y2="1">
      <stop offset="0%" stop-color="#365b7a"/>
      <stop offset="100%" stop-color="#11273a"/>
    </linearGradient>
    <filter id="shadow" x="-20%" y="-20%" width="140%" height="140%">
      <feDropShadow dx="-4" dy="10" stdDeviation="12" flood-color="#1d2d38" flood-opacity=".28"/>
    </filter>
  </defs>

  <rect width="420" height="520" fill="url(#sky)"/>

  <g opacity=".5">
    <rect x="20" y="58" width="56" height="390" rx="6" fill="#b9c8cf"/>
    <rect x="95" y="98" width="70" height="330" rx="6" fill="#d6e0e3"/>
    <rect x="182" y="42" width="58" height="380" rx="6" fill="#c5d1d7"/>
    <rect x="252" y="70" width="44" height="320" rx="6" fill="#dae4e7"/>
    <rect x="308" y="34" width="72" height="404" rx="6" fill="#becdd3"/>
  </g>

  <g opacity=".6" fill="#a8bbc2">
    <rect x="38" y="120" width="22" height="16" rx="2"/>
    <rect x="38" y="150" width="22" height="16" rx="2"/>
    <rect x="38" y="180" width="22" height="16" rx="2"/>
    <rect x="112" y="148" width="36" height="18" rx="2"/>
    <rect x="112" y="182" width="36" height="18" rx="2"/>
    <rect x="196" y="108" width="30" height="14" rx="2"/>
    <rect x="196" y="134" width="30" height="14" rx="2"/>
    <rect x="320" y="120" width="46" height="16" rx="2"/>
    <rect x="320" y="150" width="46" height="16" rx="2"/>
    <rect x="320" y="180" width="46" height="16" rx="2"/>
  </g>

  <g stroke="#f7fafb" stroke-width="12" opacity=".92">
    <line x1="70" y1="8" x2="70" y2="512"/>
    <line x1="190" y1="8" x2="190" y2="512"/>
  </g>

  <g stroke="#e1eaed" stroke-width="4" opacity=".9">
    <line x1="0" y1="182" x2="420" y2="182"/>
    <line x1="0" y1="302" x2="420" y2="302"/>
  </g>

  <rect x="10" y="14" width="190" height="494" fill="url(#glass)" opacity=".35"/>

  <g filter="url(#shadow)">
    <path d="M289 93c19-24 43-36 72-34 38 3 67 34 67 74 0 21-7 38-18 56-19-16-37-24-67-25-22-1-42 5-70 13-11-30-7-60 16-84Z" fill="#2c221f"/>
    <ellipse cx="349" cy="135" rx="49" ry="57" fill="#ddb08a"/>
    <path d="M291 118c7-33 31-63 66-66 31-2 55 20 67 49-30-5-53-7-73-4-19 3-39 10-60 21Z" fill="#302623"/>
    <path d="M315 182c18-10 39-14 63-13 33 1 59 15 86 47v248H192c11-44 29-92 55-134 20-31 38-62 50-93l18-55Z" fill="url(#coat)"/>
    <path d="M239 228c-17 8-35 23-53 43-18 21-29 44-29 61 0 11 8 18 19 18 11 0 19-6 27-19 10-16 19-33 31-49 15-21 32-39 50-51-12-4-26-5-45-3Z" fill="#e1b48e"/>
    <path d="M251 223c-24 16-46 42-66 81 10 10 23 14 36 12 18-32 39-58 72-81-13-9-26-13-42-12Z" fill="#315877"/>
    <circle cx="155" cy="327" r="10" fill="#e1b48e"/>
    <path d="M299 189c13 6 24 14 36 26l-11 26c-16-19-31-31-47-38l22-14Z" fill="#466d8d"/>
  </g>
</svg>
